<?xml version="1.0" standalone="no"?><!DOCTYPE svg PUBLIC "-//W3C//DTD SVG 1.1//EN" "http://www.w3.org/Graphics/SVG/1.1/DTD/svg11.dtd"><svg t="1592968861126" class="icon" viewBox="0 0 1024 1024" version="1.1" xmlns="http://www.w3.org/2000/svg" p-id="9308" xmlns:xlink="http://www.w3.org/1999/xlink" width="200" height="200"><defs><style type="text/css"></style></defs><path d="M511.992 207.24l-14.263 21.504-21.6-7.16-93.12-14.344-7.109 42.981v21.583h-21.504L203.947 329.05l-7.105 21.531c-21.504 50.141 0 93.096 50.087 150.422l14.347 14.371-14.347 21.426c-42.98 71.592-107.4 143.29-179.059 193.406-28.637 21.529-35.876 43.06-35.876 64.592l50.141 64.405 78.844 28.716L225.4 895c85.936 0 143.262 7.24 164.859 42.982l71.595 50.22c50.138 21.425 93.188 35.797 128.985 35.797 28.634 0 64.43-21.61 93.12-78.857l57.247-64.434 43.035-136.132-35.796-157.606 57.246 14.318 93.205 7.105 42.886-28.637 14.36-35.794-71.594-207.723 21.44-71.697c21.597-42.957 50.155-57.301 78.844-64.38h7.173l-14.346-50.248L805.69 157.1v-7.185L648.243 42.525C583.6-0.51 519.165-7.615 461.853 6.728l-21.518 14.348c-14.28 28.637 0 57.353 43.034 71.67 35.796 28.558 50.154 64.353 28.623 114.494z" p-id="9309"></path></svg>