<?xml version="1.0" standalone="no"?><!DOCTYPE svg PUBLIC "-//W3C//DTD SVG 1.1//EN" "http://www.w3.org/Graphics/SVG/1.1/DTD/svg11.dtd"><svg t="1592969951889" class="icon" viewBox="0 0 1024 1024" version="1.1" xmlns="http://www.w3.org/2000/svg" p-id="14258" xmlns:xlink="http://www.w3.org/1999/xlink" width="200" height="200"><defs><style type="text/css"></style></defs><path d="M45.568 337.728L451.2 533.76a33.152 33.152 0 0 1 18.432 29.888v427.264a32.512 32.512 0 0 1-32 33.024 31.168 31.168 0 0 1-13.632-3.136L18.368 824.064A33.152 33.152 0 0 1 0 794.24V367.616c0-18.24 14.336-33.024 32-33.024 4.672 0 9.344 1.088 13.568 3.136zM525.504 2.752l431.488 192.832a33.472 33.472 0 0 1 0.704 60.288L526.72 462.208a31.104 31.104 0 0 1-26.88 0L65.28 254.976a33.472 33.472 0 0 1 0.832-60.352l434.048-192a31.104 31.104 0 0 1 25.344 0.128zM1024 367.68v426.496c0 12.8-7.168 24.448-18.432 29.888l-404.8 195.584a31.552 31.552 0 0 1-42.56-15.872 33.92 33.92 0 0 1-3.008-14.08V563.776c0-12.8 7.168-24.448 18.432-29.888l404.8-196.096a31.552 31.552 0 0 1 42.56 15.936 33.92 33.92 0 0 1 3.008 14.016z" p-id="14259"></path></svg>