<?xml version="1.0" standalone="no"?><!DOCTYPE svg PUBLIC "-//W3C//DTD SVG 1.1//EN" "http://www.w3.org/Graphics/SVG/1.1/DTD/svg11.dtd"><svg t="1592969860833" class="icon" viewBox="0 0 1160 1024" version="1.1" xmlns="http://www.w3.org/2000/svg" p-id="10792" xmlns:xlink="http://www.w3.org/1999/xlink" width="226.5625" height="200"><defs><style type="text/css"></style></defs><path d="M651.605333 787.797333a40.823467 40.823467 0 0 1-11.605333-17.476266A300.373333 300.373333 0 0 0 95.573333 945.493333a40.96 40.96 0 0 1-81.92 0 382.293333 382.293333 0 0 1 665.736534-256.546133 245.76 245.76 0 0 1 422.0928 171.2128 40.96 40.96 0 0 1-81.92 0 163.84 163.84 0 0 0-291.0208-103.287467c31.607467 55.637333 49.698133 120.0128 49.698133 188.6208a40.96 40.96 0 0 1-81.92 0 299.008 299.008 0 0 0-44.714667-157.696zM395.946667 477.866667a211.626667 211.626667 0 1 1 0-423.253334 211.626667 211.626667 0 0 1 0 423.253334z m0-81.92a129.706667 129.706667 0 1 0 0-259.413334 129.706667 129.706667 0 0 0 0 259.413334zM869.649067 546.133333a160.426667 160.426667 0 1 1 0-320.853333 160.426667 160.426667 0 0 1 0 320.853333z m0-81.92a78.506667 78.506667 0 1 0 0-157.013333 78.506667 78.506667 0 0 0 0 157.013333z" p-id="10793"></path></svg>