<?xml version="1.0" standalone="no"?><!DOCTYPE svg PUBLIC "-//W3C//DTD SVG 1.1//EN" "http://www.w3.org/Graphics/SVG/1.1/DTD/svg11.dtd"><svg t="1594366560147" class="icon" viewBox="0 0 1024 1024" version="1.1" xmlns="http://www.w3.org/2000/svg" p-id="1652" width="200" height="200" xmlns:xlink="http://www.w3.org/1999/xlink"><defs><style type="text/css"></style></defs><path d="M780.8 755.2c-134.1056 0-243.2-109.0944-243.2-243.2s109.0944-243.2 243.2-243.2 243.2 109.0944 243.2 243.2-109.0944 243.2-243.2 243.2z m0-435.2c-105.8688 0-192 86.1312-192 192s86.1312 192 192 192 192-86.1312 192-192-86.1312-192-192-192zM128 256C57.4208 256 0 198.5792 0 128S57.4208 0 128 0s128 57.4208 128 128-57.4208 128-128 128z m0-204.8c-42.3552 0-76.8 34.4448-76.8 76.8s34.4448 76.8 76.8 76.8 76.8-34.4448 76.8-76.8-34.4448-76.8-76.8-76.8zM128 1024C57.4208 1024 0 966.5792 0 896s57.4208-128 128-128 128 57.4208 128 128-57.4208 128-128 128z m0-204.8c-42.3552 0-76.8 34.4448-76.8 76.8s34.4448 76.8 76.8 76.8 76.8-34.4448 76.8-76.8-34.4448-76.8-76.8-76.8zM128 640C57.4208 640 0 582.5792 0 512s57.4208-128 128-128 128 57.4208 128 128-57.4208 128-128 128z m0-204.8c-42.3552 0-76.8 34.4448-76.8 76.8s34.4448 76.8 76.8 76.8 76.8-34.4448 76.8-76.8-34.4448-76.8-76.8-76.8z" fill="#707070" p-id="1653"></path><path d="M281.6 921.6h-51.2a25.6 25.6 0 0 1 0-51.2h51.2a25.6 25.6 0 0 1 0 51.2zM780.8 921.6H409.6a25.6 25.6 0 0 1 0-51.2h345.6V729.6a25.6 25.6 0 0 1 51.2 0v166.4a25.6 25.6 0 0 1-25.6 25.6zM780.8 320a25.6 25.6 0 0 1-25.6-25.6V153.6h-51.2a25.6 25.6 0 0 1 0-51.2h76.8a25.6 25.6 0 0 1 25.6 25.6v166.4a25.6 25.6 0 0 1-25.6 25.6zM576 153.6H230.4a25.6 25.6 0 0 1 0-51.2h345.6a25.6 25.6 0 0 1 0 51.2zM563.2 537.6H230.4a25.6 25.6 0 0 1 0-51.2h332.8a25.6 25.6 0 0 1 0 51.2z" fill="#707070" p-id="1654"></path></svg>