<?xml version="1.0" standalone="no"?><!DOCTYPE svg PUBLIC "-//W3C//DTD SVG 1.1//EN" "http://www.w3.org/Graphics/SVG/1.1/DTD/svg11.dtd"><svg t="1592968256272" class="icon" viewBox="0 0 1024 1024" version="1.1" xmlns="http://www.w3.org/2000/svg" p-id="3696" xmlns:xlink="http://www.w3.org/1999/xlink" width="200" height="200"><defs><style type="text/css"></style></defs><path d="M755.2 808h-416c-17.6 0-32-14.4-32-32v-62.4c0-84.8 44.8-163.2 118.4-206.4C350.4 464 304 384 304 297.6v-62.4c0-17.6 14.4-32 32-32h416c17.6 0 32 14.4 32 32v62.4c0 62.4-24 123.2-68.8 168l-1.6 1.6c-14.4 14.4-30.4 27.2-49.6 38.4 19.2 11.2 35.2 24 51.2 40l1.6 1.6c43.2 44.8 68.8 105.6 68.8 168v62.4c0 16-12.8 30.4-30.4 30.4z m-384-64h352v-30.4c0-46.4-17.6-91.2-51.2-123.2l-1.6-1.6c-16-16-35.2-28.8-54.4-36.8-4.8-1.6-11.2-4.8-16-4.8-12.8-4.8-22.4-16-22.4-30.4V496c0-14.4 9.6-27.2 22.4-30.4 4.8-1.6 9.6-3.2 12.8-4.8 20.8-8 40-20.8 56-36.8l1.6-1.6c32-32 49.6-76.8 49.6-121.6v-30.4H368v30.4c0 70.4 41.6 134.4 107.2 161.6 4.8 1.6 11.2 4.8 16 6.4 12.8 4.8 22.4 17.6 22.4 30.4v20.8c0 14.4-9.6 25.6-22.4 30.4-4.8 1.6-9.6 3.2-12.8 4.8-65.6 27.2-107.2 91.2-107.2 161.6v27.2z" p-id="3697"></path><path d="M624 328c-8 43.2-49.6 72-92.8 65.6-33.6-6.4-59.2-32-65.6-65.6h-32c6.4 60.8 60.8 107.2 123.2 100.8 52.8-4.8 94.4-48 100.8-100.8H624z" p-id="3698"></path></svg>