<?xml version="1.0" standalone="no"?><!DOCTYPE svg PUBLIC "-//W3C//DTD SVG 1.1//EN" "http://www.w3.org/Graphics/SVG/1.1/DTD/svg11.dtd"><svg t="1592968835758" class="icon" viewBox="0 0 1025 1024" version="1.1" xmlns="http://www.w3.org/2000/svg" p-id="7338" xmlns:xlink="http://www.w3.org/1999/xlink" width="200.1953125" height="200"><defs><style type="text/css"></style></defs><path d="M715.943 346.069c-23.873-19.56-43.384-54.248-62.937-108.498-62.913 0-99.753-10.84-117.138-32.52-13.036-19.56-39.04-32.568-75.954-43.409l-10.84-2.2 10.84-36.864-6.496-4.345-10.84-2.168c-26.025 13.032-43.385 26.048-49.921 43.377-8.649 17.383-19.512 32.568-32.545 43.408-10.84 34.72-21.705 52.08-32.545 52.08-6.495 2.145-10.84-2.175-15.164-8.695l-17.356-15.16c-12.992-6.52-26.029-13.04-36.869-13.04l-21.7 4.345c-15.185 15.192-36.893 26.032-69.41 30.376l-82.473-4.344c-26.024-13.016-36.889-39.024-30.368-71.586l-30.373-10.84-15.164 43.4v2.152l-2.193 2.151-6.495 8.689 19.529 4.352h4.323l2.172 2.168v2.176c36.889 49.873 65.088 82.441 80.273 91.089 8.669 4.343 34.742 13.04 80.274 26.048l78.1 28.177c23.853 10.856 47.729 58.593 73.733 143.218 34.738 23.848 56.441 34.713 71.63 32.537 15.184-6.496 41.188-21.672 78.1-45.576l2.152-2.153 2.193-2.168 4.343 2.168 39.041 8.689h4.344v6.504l-2.168 6.513c-13.016 52.072-23.88 82.441-32.568 91.112l-52.057 2.168v2.184c0 21.697-15.184 54.242-43.38 95.458-8.669 13.024-10.845 23.848-10.845 30.368l49.88 34.688c13.016 15.209 21.704 19.56 32.545 19.56h10.865l10.84 36.89 23.852 8.665 13.036-13.017c6.52-6.52 15.164-10.864 21.68-8.688 21.704 0 39.065 13.04 60.745 41.209l19.529 26.048 2.176-2.192c13.009-8.664 36.865-6.496 71.6 4.344l56.378 13.016 52.097-17.36 21.705-10.84 15.163-10.84-13.035-15.185c-4.325-8.672 0-19.513 10.864-30.376 13.032-10.832 21.68-21.673 21.68-34.713v-26.032c-4.3-13.024-2.127-21.696 2.193-26.017 4.348-8.687 19.512-13.04 36.893-17.36 28.196-4.352 62.893 8.673 104.125 43.377l-15.16-43.377-23.881-32.544-4.344-39.081-36.888-6.505h-2.172v-2.143l-97.634-56.424-47.705-8.664v-10.84l-2.196-49.905c-32.543-91.114-58.567-147.53-78.08-167.035z" p-id="7339"></path></svg>