<?xml version="1.0" standalone="no"?><!DOCTYPE svg PUBLIC "-//W3C//DTD SVG 1.1//EN" "http://www.w3.org/Graphics/SVG/1.1/DTD/svg11.dtd"><svg t="1594025659497" class="icon" viewBox="0 0 1024 1024" version="1.1" xmlns="http://www.w3.org/2000/svg" p-id="2747" xmlns:xlink="http://www.w3.org/1999/xlink" width="200" height="200"><defs><style type="text/css"></style></defs><path d="M618.496 146.090667a196.334933 196.334933 0 0 0-18.568533 83.933866c0 52.599467 20.3776 101.751467 57.514666 138.888534a195.242667 195.242667 0 0 0 138.922667 57.514666 193.877333 193.877333 0 0 0 83.899733-18.7392 183.637333 183.637333 0 0 1-131.242666 54.442667c-12.936533 0-25.838933-1.467733-38.4-4.027733a61.8496 61.8496 0 0 0-56.456534 16.759466L296.277333 832.580267a106.7008 106.7008 0 0 0-102.843733-102.843734l357.512533-357.717333c14.7456-14.7456 21.128533-35.874133 16.759467-56.456533a184.251733 184.251733 0 0 1 50.619733-169.472h0.170667z m62.464 539.409066l196.608 196.608c10.922667 10.922667 10.922667 28.740267 0 39.492267a28.228267 28.228267 0 0 1-39.5264 0l-196.608-196.608 39.492267-39.492267zM724.241067 33.041067c-4.573867 0-9.284267 0.546133-14.0288 1.092266a246.237867 246.237867 0 0 0-202.786134 294.365867L94.754133 741.376a134.144 134.144 0 0 0 0 190.0544c52.224 52.224 138.001067 52.224 190.0544 0L697.685333 518.5536c138.717867 28.945067 272.725333-63.351467 294.1952-202.786133 5.256533-33.518933-8.192-52.6336-25.873066-52.6336-8.192 0-17.1008 4.027733-25.838934 12.561066l-49.152 49.152a135.031467 135.031467 0 0 1-190.225066 0 134.382933 134.382933 0 0 1 0-190.225066l49.152-49.152c24.576-24.405333 12.356267-52.599467-25.668267-52.4288zM158.1056 868.078933c-28.398933-28.398933-7.645867-76.458667 31.675733-76.458666 39.3216 0 60.416 48.059733 31.8464 76.458666a45.056 45.056 0 0 1-63.522133 0zM94.378667 74.922667L30.856533 138.24l79.189334 111.035733 66.4576 34.952534 155.4432 155.477333 63.351466-63.351467-155.101866-155.648L205.243733 154.282667 94.378667 74.922667z m570.709333 539.0336l-95.0272 95.0272a22.4256 22.4256 0 0 0 0 31.675733l224.4608 224.4608a90.043733 90.043733 0 0 0 126.907733 0 89.873067 89.873067 0 0 0 0-126.907733l-224.4608-224.4608a22.459733 22.459733 0 0 0-31.880533 0.2048z" p-id="2748"></path></svg>