<?xml version="1.0" standalone="no"?><!DOCTYPE svg PUBLIC "-//W3C//DTD SVG 1.1//EN" "http://www.w3.org/Graphics/SVG/1.1/DTD/svg11.dtd"><svg t="1592970159968" class="icon" viewBox="0 0 1024 1024" version="1.1" xmlns="http://www.w3.org/2000/svg" p-id="16597" xmlns:xlink="http://www.w3.org/1999/xlink" width="200" height="200"><defs><style type="text/css"></style></defs><path d="M682.666667 981.333333c-2.133333 0-6.4 0-8.533334-2.133333L362.666667 855.466667 51.2 979.2c-6.4 2.133333-14.933333 2.133333-19.2-2.133333-6.4-4.266667-10.666667-10.666667-10.666667-17.066667V192c0-8.533333 4.266667-17.066667 12.8-19.2l320-128c4.266667-2.133333 10.666667-2.133333 14.933334 0L682.666667 168.533333l290.133333-123.733333c6.4-2.133333 14.933333-2.133333 19.2 2.133333 6.4 4.266667 10.666667 10.666667 10.666667 17.066667v768c0 8.533333-4.266667 17.066667-12.8 19.2l-298.666667 128c-2.133333 2.133333-6.4 2.133333-8.533333 2.133333z m-320-170.666666c2.133333 0 6.4 0 8.533333 2.133333L682.666667 936.533333l277.333333-119.466666V96L691.2 211.2c-4.266667 2.133333-10.666667 2.133333-17.066667 0L362.666667 87.466667 64 206.933333v721.066667L354.133333 810.666667h8.533334z m618.666666 21.333333z" p-id="16598"></path><path d="M362.666667 853.333333c-12.8 0-21.333333-8.533333-21.333334-21.333333V64c0-12.8 8.533333-21.333333 21.333334-21.333333s21.333333 8.533333 21.333333 21.333333v768c0 12.8-8.533333 21.333333-21.333333 21.333333zM682.666667 981.333333c-12.8 0-21.333333-8.533333-21.333334-21.333333V192c0-12.8 8.533333-21.333333 21.333334-21.333333s21.333333 8.533333 21.333333 21.333333v768c0 12.8-8.533333 21.333333-21.333333 21.333333z" p-id="16599"></path></svg>