<?xml version="1.0" standalone="no"?><!DOCTYPE svg PUBLIC "-//W3C//DTD SVG 1.1//EN" "http://www.w3.org/Graphics/SVG/1.1/DTD/svg11.dtd"><svg t="1594171661713" class="icon" viewBox="0 0 1755 1024" version="1.1" xmlns="http://www.w3.org/2000/svg" p-id="1865" width="342.7734375" height="200" xmlns:xlink="http://www.w3.org/1999/xlink"><defs><style type="text/css"></style></defs><path d="M1243.428571 1024H365.714286a73.142857 73.142857 0 0 1 0-146.285714h877.714285a73.142857 73.142857 0 0 0 73.142858-73.142857V219.428571a73.142857 73.142857 0 0 0-73.142858-73.142857H219.428571a73.142857 73.142857 0 0 0-73.142857 73.142857v731.428572a73.142857 73.142857 0 0 1-146.285714 0V219.428571a219.428571 219.428571 0 0 1 219.428571-219.428571h1024a219.428571 219.428571 0 0 1 219.428572 219.428571v585.142858a219.428571 219.428571 0 0 1-219.428572 219.428571z m512-365.714286V365.714286a73.142857 73.142857 0 0 0-146.285714 0v292.571428a73.142857 73.142857 0 0 0 146.285714 0z m-658.285714 0V365.714286a73.142857 73.142857 0 0 0-146.285714 0v292.571428a73.142857 73.142857 0 0 0 146.285714 0z m-292.571428 0V365.714286a73.142857 73.142857 0 0 0-146.285715 0v292.571428a73.142857 73.142857 0 0 0 146.285715 0zM512 658.285714V365.714286a73.142857 73.142857 0 0 0-146.285714 0v292.571428a73.142857 73.142857 0 0 0 146.285714 0z" fill="#BFCBD9" p-id="1866" data-spm-anchor-id="a313x.7781069.0.i1" class="selected"></path></svg>