<?xml version="1.0" standalone="no"?><!DOCTYPE svg PUBLIC "-//W3C//DTD SVG 1.1//EN" "http://www.w3.org/Graphics/SVG/1.1/DTD/svg11.dtd"><svg t="1592968849276" class="icon" viewBox="0 0 1630 1024" version="1.1" xmlns="http://www.w3.org/2000/svg" p-id="8304" xmlns:xlink="http://www.w3.org/1999/xlink" width="318.359375" height="200"><defs><style type="text/css"></style></defs><path d="M1491.836257 30.066277l-5.863547 2.994152a22.081871 22.081871 0 0 1-24.077973 24.077973l-117.021443-12.475634C1263.781676 30.066277 1210.136452 17.964912 1182.690058 2.994152L1017.637427 159.064327l5.988304 66.120858v5.988304l-14.97076 2.994152q-193.621832 26.947368-207.220273-36.054581L785.964912 12.475634 636.25731 2.994152l-62.378168 131.992203-5.988304-56.888889c-2.994152-45.037037-12.475634-72.109162-21.08382-78.097466L480.311891 33.060429l-30.066277 39.048733-2.994152 2.744639h-2.994152L384.249513 96.062378a1339.384016 1339.384016 0 0 0-174.035088 171.165692L51.025341 483.430799l33.060429 74.853801v12.475634l-3.118908 3.118908c-12.475634 17.964912-5.863548 45.037037 12.475633 74.853801a266.978558 266.978558 0 0 1 35.929825 129.122807v8.982457L0 861.567251v30.066277l60.007797 26.947369a16.093567 16.093567 0 0 1 8.982456 12.475633v5.988304c-2.869396 14.97076 21.083821 36.054581 66.120858 57.013646l111.033139 29.94152 33.060428-20.834308 36.054581-51.150097 29.941521-87.329435 87.329434 33.060429 12.475634 9.107212v8.8577c-14.97076 36.054581-5.988304 60.007797 21.083821 74.853801l95.937621 2.994152a170.666667 170.666667 0 0 0 77.348928-32.935672c12.475634-14.97076 30.066277-17.964912 57.013646-14.970761a129.871345 129.871345 0 0 1 84.08577 45.037037l20.959064-51.025341 5.988304-8.982456H810.916179c14.97076-8.982456 23.953216-23.953216 35.929825-45.161793a124.756335 124.756335 0 0 1 48.031189-57.013645l42.042885-23.953217 3.118908-2.994152 2.869396 2.994152h3.118908l23.82846 5.988304 6.113061 2.994152 33.060429-149.707602v-3.118908l48.031189-8.8577c48.031189-33.060429 72.109162-60.132554 68.990253-84.08577l-8.982456-45.037037c-12.475634-30.066277-12.475634-51.025341-5.988304-60.007797a30.939571 30.939571 0 0 1 23.953216-12.475634 158.315789 158.315789 0 0 1 69.11501 17.964912l5.988304-47.906432v-5.988305l2.994152-3.118908L1263.781676 386.744639l5.988305-26.947368h-30.066277l-5.988304-3.118908 2.994152-14.970761v-8.982456l2.994152-5.988304h15.095516q31.563353 0 71.984406-36.054581l189.130604-135.111111h6.11306l60.007798 27.072125 23.953216-2.994152-14.97076-62.378168v-6.11306l2.994152-3.118909 2.994152-2.994152 33.060429-54.019493-8.982456-5.988304-21.083821 5.988304v2.994152H1596.881092l-60.007798 8.982456h-17.964912v-2.869395l-3.118908-9.107213-12.475634-20.959064z" p-id="8305"></path></svg>